# xmcd CD database file
#
# Track frame offsets:
#	150
#	14637
#	23950
#	33087
#	42887
#	55112
#	66725
#	76037
#	88625
#	101150
#	112200
#	120187
#
# Disc length: 1728 seconds
#
# Revision: 1
# Processed by: cddbd v1.4PL0 Copyright (c) Steve Scherf et al.
# Submitted via: CDex 1.50Beta7
#
DISCID=9806be0c
DTITLE=Country Gazette - Don't Give Up Your Day Job
DYEAR=1973
DGENRE=Country
TTITLE0=Huckleberry Hornpipe
TTITLE1=The Fallen Eagle
TTITLE2=I Don't Believe You Met My Baby
TTITLE3=Deputy Dalton
TTITLE4=Teach Your Children
TTITLE5=My Oklahoma
TTITLE6=Down The Road
TTITLE7=WInterwood
TTITLE8=Honky Cat
TTITLE9=Snowball
TTITLE10=Lonesome Blues
TTITLE11=Singin' All Day and Dinner on the Ground
EXTD=YEAR: 1973
EXTT0=
EXTT1=
EXTT2=
EXTT3=
EXTT4=
EXTT5=
EXTT6=
EXTT7=
EXTT8=
EXTT9=
EXTT10=
EXTT11=
PLAYORDER=
